<svg xmlns="http://www.w3.org/2000/svg" width="1280" height="320" viewBox="0 0 1280 320" role="img" aria-label="Bellows - MCP hands for a local model fleet">
  <defs>
    <radialGradient id="glow-be" cx="0.22" cy="0.5" r="0.75">
      <stop offset="0" stop-color="#d4442c" stop-opacity="0.15"/>
      <stop offset="1" stop-color="#d4442c" stop-opacity="0"/>
    </radialGradient>
    <linearGradient id="edge-be" x1="0" y1="0" x2="1" y2="0">
      <stop offset="0" stop-color="#d4442c"/>
      <stop offset="1" stop-color="#d4442c" stop-opacity="0"/>
    </linearGradient>
  </defs>

  <rect width="1280" height="320" fill="#1a1413"/>
  <rect width="1280" height="320" fill="url(#glow-be)"/>

  <!-- faint oversized mark, right side texture -->
  <g transform="translate(1010,40) scale(3.4)" opacity="0.05">
    <path d="M6 34 l22 -18 v10 l14 0 v16 l-14 0 v10 z" fill="#d4442c"/>
    <path d="M50 26 h16 M50 34 h22 M50 42 h16" stroke="#d4442c" stroke-width="6" stroke-linecap="round"/>
  </g>

  <!-- mark: bellows chamber pushing airflow lines -->
  <g transform="translate(96,116)">
    <path d="M0 30 l26 -22 v13 h16 v18 h-16 v13 z" fill="#d4442c"/>
    <path d="M52 21 h20 M52 30 h30 M52 39 h20" stroke="#d4442c" stroke-width="5" stroke-linecap="round" opacity="0.7"/>
    <circle cx="92" cy="30" r="4" fill="#d4442c"/>
  </g>

  <!-- wordmark -->
  <text x="208" y="163" font-family="-apple-system,'Segoe UI',Helvetica,Arial,sans-serif" font-size="64" font-weight="700" letter-spacing="-1" fill="#f2ebe7">bellows</text>
  <text x="210" y="205" font-family="-apple-system,'Segoe UI',Helvetica,Arial,sans-serif" font-size="21" fill="#b6a69e">MCP hands for a local model fleet.</text>

  <text x="210" y="243" font-family="ui-monospace,'SF Mono',Menlo,Consolas,monospace" font-size="14" fill="#80706a">Model Context Protocol · llama-server supervision · smoke tests · eval history</text>

  <rect x="96" y="272" width="420" height="2" fill="url(#edge-be)"/>
</svg>
